<?xml version="1.0" encoding="UTF-8" standalone="no"?>
<!-- Created with Inkscape (http://www.inkscape.org/) -->

<svg
   version="1.1"
   id="svg1"
   width="880"
   height="880"
   viewBox="0 0 880 880"
   sodipodi:docname="hand-holding-paper-publicdomainvectors.org.svg"
   inkscape:version="1.3.2 (091e20e, 2023-11-25, custom)"
   xmlns:inkscape="http://www.inkscape.org/namespaces/inkscape"
   xmlns:sodipodi="http://sodipodi.sourceforge.net/DTD/sodipodi-0.dtd"
   xmlns="http://www.w3.org/2000/svg"
   xmlns:svg="http://www.w3.org/2000/svg">
  <defs
     id="defs1">
    <clipPath
       clipPathUnits="userSpaceOnUse"
       id="clipPath4">
      <path
         d="M 0,660 H 660 V 0 H 0 Z"
         transform="translate(-315.24021,-492.55471)"
         id="path4" />
    </clipPath>
    <clipPath
       clipPathUnits="userSpaceOnUse"
       id="clipPath6">
      <path
         d="M 0,660 H 660 V 0 H 0 Z"
         transform="translate(-231.53221,-461.81351)"
         id="path6" />
    </clipPath>
    <clipPath
       clipPathUnits="userSpaceOnUse"
       id="clipPath8">
      <path
         d="M 0,660 H 660 V 0 H 0 Z"
         transform="translate(-473.60551,-464.42041)"
         id="path8" />
    </clipPath>
    <clipPath
       clipPathUnits="userSpaceOnUse"
       id="clipPath10">
      <path
         d="M 0,660 H 660 V 0 H 0 Z"
         transform="translate(-127.89891,-496.75731)"
         id="path10" />
    </clipPath>
    <clipPath
       clipPathUnits="userSpaceOnUse"
       id="clipPath12">
      <path
         d="M 0,660 H 660 V 0 H 0 Z"
         transform="translate(-267.23781,-394.27591)"
         id="path12" />
    </clipPath>
    <clipPath
       clipPathUnits="userSpaceOnUse"
       id="clipPath14">
      <path
         d="M 0,660 H 660 V 0 H 0 Z"
         transform="translate(-211.3711,-519.29441)"
         id="path14" />
    </clipPath>
    <clipPath
       clipPathUnits="userSpaceOnUse"
       id="clipPath16">
      <path
         d="M 0,660 H 660 V 0 H 0 Z"
         transform="translate(-374.99121,-560.41211)"
         id="path16" />
    </clipPath>
    <clipPath
       clipPathUnits="userSpaceOnUse"
       id="clipPath18">
      <path
         d="M 0,660 H 660 V 0 H 0 Z"
         transform="translate(-319.89061,-566.97412)"
         id="path18" />
    </clipPath>
    <clipPath
       clipPathUnits="userSpaceOnUse"
       id="clipPath20">
      <path
         d="M 0,660 H 660 V 0 H 0 Z"
         transform="translate(-127.89891,-206.3359)"
         id="path20" />
    </clipPath>
    <clipPath
       clipPathUnits="userSpaceOnUse"
       id="clipPath22">
      <path
         d="M 0,660 H 660 V 0 H 0 Z"
         transform="translate(-127.89891,-206.3359)"
         id="path22" />
    </clipPath>
    <clipPath
       clipPathUnits="userSpaceOnUse"
       id="clipPath24">
      <path
         d="M 0,660 H 660 V 0 H 0 Z"
         transform="translate(-261.30621,-470.95511)"
         id="path24" />
    </clipPath>
    <clipPath
       clipPathUnits="userSpaceOnUse"
       id="clipPath26">
      <path
         d="M 0,660 H 660 V 0 H 0 Z"
         transform="translate(-369.35641,-463.55911)"
         id="path26" />
    </clipPath>
    <clipPath
       clipPathUnits="userSpaceOnUse"
       id="clipPath28">
      <path
         d="M 0,660 H 660 V 0 H 0 Z"
         transform="translate(-421.82231,-485.06741)"
         id="path28" />
    </clipPath>
    <clipPath
       clipPathUnits="userSpaceOnUse"
       id="clipPath30">
      <path
         d="M 0,660 H 660 V 0 H 0 Z"
         transform="translate(-161.06301,-254.2813)"
         id="path30" />
    </clipPath>
    <clipPath
       clipPathUnits="userSpaceOnUse"
       id="clipPath32">
      <path
         d="M 0,660 H 660 V 0 H 0 Z"
         transform="translate(-276.874,-544.16311)"
         id="path32" />
    </clipPath>
    <clipPath
       clipPathUnits="userSpaceOnUse"
       id="clipPath34">
      <path
         d="M 0,660 H 660 V 0 H 0 Z"
         transform="translate(-324.25681,-438.67331)"
         id="path34" />
    </clipPath>
    <clipPath
       clipPathUnits="userSpaceOnUse"
       id="clipPath36">
      <path
         d="M 0,660 H 660 V 0 H 0 Z"
         transform="translate(-253.04491,-538.82962)"
         id="path36" />
    </clipPath>
    <clipPath
       clipPathUnits="userSpaceOnUse"
       id="clipPath38">
      <path
         d="M 0,660 H 660 V 0 H 0 Z"
         transform="translate(-331.15631,-544.80811)"
         id="path38" />
    </clipPath>
    <clipPath
       clipPathUnits="userSpaceOnUse"
       id="clipPath40">
      <path
         d="M 0,660 H 660 V 0 H 0 Z"
         transform="translate(-375.47271,-573.48292)"
         id="path40" />
    </clipPath>
    <clipPath
       clipPathUnits="userSpaceOnUse"
       id="clipPath42">
      <path
         d="M 0,660 H 660 V 0 H 0 Z"
         transform="translate(-420.95901,-568.29391)"
         id="path42" />
    </clipPath>
    <clipPath
       clipPathUnits="userSpaceOnUse"
       id="clipPath44">
      <path
         d="M 0,660 H 660 V 0 H 0 Z"
         transform="translate(-507.87301,-131.9463)"
         id="path44" />
    </clipPath>
  </defs>
  <sodipodi:namedview
     id="namedview1"
     pagecolor="#ffffff"
     bordercolor="#000000"
     borderopacity="0.25"
     inkscape:showpageshadow="2"
     inkscape:pageopacity="0.0"
     inkscape:pagecheckerboard="0"
     inkscape:deskcolor="#d1d1d1"
     inkscape:zoom="0.67272727"
     inkscape:cx="439.25676"
     inkscape:cy="440"
     inkscape:window-width="1440"
     inkscape:window-height="830"
     inkscape:window-x="-6"
     inkscape:window-y="-6"
     inkscape:window-maximized="1"
     inkscape:current-layer="g1">
    <inkscape:page
       x="0"
       y="0"
       inkscape:label="1"
       id="page1"
       width="880"
       height="880"
       margin="1.38412 0 0 1.6379867"
       bleed="0" />
  </sodipodi:namedview>
  <g
     id="g1"
     inkscape:groupmode="layer"
     inkscape:label="1">
    <g
       id="group-MC0">
      <path
         id="path2"
         d="M 1.229,1.038 H 660 V 660 H 1.229 Z"
         style="fill:#463d3b;fill-opacity:1;fill-rule:nonzero;stroke:none"
         transform="matrix(1.3333333,0,0,-1.3333333,0,880)" />
      <path
         id="path3"
         d="m 0,0 c -6.708,-15.543 -24.75,-22.705 -40.292,-15.997 -15.545,6.708 -22.705,24.75 -15.997,40.293 L -36.44,70.132 C -29.731,85.676 -11.692,92.837 3.853,86.128 19.396,79.42 26.558,61.38 19.849,45.836 Z"
         style="fill:#f28f62;fill-opacity:1;fill-rule:evenodd;stroke:none"
         transform="matrix(1.3333333,0,0,-1.3333333,420.32027,223.2604)"
         clip-path="url(#clipPath4)" />
      <path
         id="path5"
         d="m 0,0 c -9.568,-14.018 -28.683,-17.626 -42.698,-8.06 -14.017,9.566 -17.626,28.681 -8.06,42.698 l 34.206,50.264 c 9.564,14.017 28.681,17.624 42.698,8.06 14.015,-9.566 17.624,-28.684 8.058,-42.698 z"
         style="fill:#f28f62;fill-opacity:1;fill-rule:evenodd;stroke:none"
         transform="matrix(1.3333333,0,0,-1.3333333,308.7096,264.24867)"
         clip-path="url(#clipPath6)" />
      <path
         id="path7"
         d="m 0,0 c -10.692,-13.151 -30.026,-15.145 -43.178,-4.451 -13.154,10.695 -15.145,30.027 -4.451,43.18 L -2.658,94.127 C 8.036,107.278 27.368,109.27 40.52,98.578 53.673,87.883 55.665,68.55 44.971,55.398 Z"
         style="fill:#f28f62;fill-opacity:1;fill-rule:evenodd;stroke:none"
         transform="matrix(1.3333333,0,0,-1.3333333,631.474,260.7728)"
         clip-path="url(#clipPath8)" />
      <path
         id="path9"
         d="M 0,0 406.219,39.584 371.776,-185.845 218.92,-206.773 18.003,-190.568 Z"
         style="fill:#edd5d1;fill-opacity:1;fill-rule:evenodd;stroke:none"
         transform="matrix(1.3333333,0,0,-1.3333333,170.53187,217.65693)"
         clip-path="url(#clipPath10)" />
      <path
         id="path11"
         d="m 0,0 c 34.675,2.44 70.677,4.952 108.042,7.57 38.797,2.715 79.189,5.55 121.208,8.501 -1.447,-8.209 -2.876,-16.309 -4.29,-24.322 -41.117,-2.416 -80.637,-4.739 -118.625,-6.965 C 69.684,-17.363 34.369,-19.429 0.325,-21.434 0.195,-14.372 0.098,-7.218 0,0 m 0.645,-41.843 c 33.444,1.597 68.136,3.243 104.043,4.966 37.255,1.791 75.979,3.653 116.206,5.58 -1.339,-7.587 -2.658,-15.067 -3.961,-22.425 -39.361,-1.468 -77.309,-2.885 -113.812,-4.247 -35.247,-1.318 -69.268,-2.589 -102.158,-3.817 -0.127,6.549 -0.22,13.207 -0.318,19.943 M -1.332,93.772 c 37.445,4.473 76.444,9.123 117.061,13.971 42.239,5.041 86.392,10.313 132.488,15.81 -1.72,-9.77 -3.416,-19.36 -5.086,-28.843 -45,-4.771 -88.129,-9.36 -129.456,-13.748 C 73.898,76.743 35.71,72.676 -0.995,68.789 -1.131,77.004 -1.23,85.324 -1.332,93.772 M -112.196,80.538 c 13.986,1.674 28.257,3.38 42.745,5.107 14.74,1.754 29.736,3.545 44.943,5.361 0.908,-28.484 1.803,-55.725 2.677,-81.752 0.836,-24.937 1.63,-48.859 2.406,-71.801 -13.446,-0.501 -26.731,-0.998 -39.737,-1.486 -12.882,-0.479 -25.572,-0.954 -38.043,-1.422 -2.253,21.929 -4.597,44.761 -7.035,68.501 -2.537,24.729 -5.189,50.54 -7.956,77.492 M -0.66,45.083 c 36.005,3.36 73.459,6.88 112.368,10.527 40.464,3.791 82.663,7.752 126.619,11.889 -1.575,-8.936 -3.129,-17.747 -4.66,-26.413 C 190.685,37.564 149.431,34.202 109.839,30.968 71.705,27.852 34.993,24.86 -0.329,21.999 -0.462,29.574 -0.56,37.288 -0.66,45.083"
         style="fill:#ba9b93;fill-opacity:1;fill-rule:evenodd;stroke:none"
         transform="matrix(1.3333333,0,0,-1.3333333,356.31707,354.2988)"
         clip-path="url(#clipPath12)" />
      <path
         id="path13"
         d="m 0,0 c -5.58,16.007 2.875,33.508 18.884,39.087 16.009,5.58 33.51,-2.872 39.088,-18.881 l 15.712,-44.858 c 1.345,-3.857 1.871,-7.803 1.676,-11.648 l -0.115,-21.985 c -0.063,-16.939 -13.852,-30.616 -30.79,-30.55 -16.938,0.065 -30.616,13.851 -30.55,30.79 l 0.091,18.075 z"
         style="fill:#f5a683;fill-opacity:1;fill-rule:evenodd;stroke:none"
         transform="matrix(1.3333333,0,0,-1.3333333,281.82813,187.60747)"
         clip-path="url(#clipPath14)" />
      <path
         id="path15"
         d="M 0,0 C -3.52,16.605 7.088,32.924 23.696,36.444 40.301,39.964 56.618,29.356 60.14,12.75 l 13.444,-62.799 c 0.615,-2.898 0.798,-5.784 0.597,-8.597 l -0.098,-30.552 c 0,-16.939 -13.731,-30.672 -30.67,-30.672 -16.94,0 -30.671,13.733 -30.671,30.672 l 0.091,29.262 z"
         style="fill:#f5a683;fill-opacity:1;fill-rule:evenodd;stroke:none"
         transform="matrix(1.3333333,0,0,-1.3333333,499.98827,132.78387)"
         clip-path="url(#clipPath16)" />
      <path
         id="path17"
         d="m 0,0 c -3.522,16.607 7.088,32.922 23.693,36.444 16.608,3.522 32.925,-7.088 36.445,-23.693 l 17.061,-79.686 c 0.614,-2.898 0.797,-5.783 0.594,-8.596 l -0.123,-39.363 c 0,-16.939 -13.732,-30.674 -30.671,-30.674 -16.938,0 -30.672,13.735 -30.672,30.674 l 0.121,38.073 z"
         style="fill:#f5a683;fill-opacity:1;fill-rule:evenodd;stroke:none"
         transform="matrix(1.3333333,0,0,-1.3333333,426.5208,124.03453)"
         clip-path="url(#clipPath18)" />
      <path
         id="path19"
         d="M 0,0 197.071,-23.131 406.219,-8.049 371.776,104.576 18.003,99.854 Z"
         style="fill:#fcf1ef;fill-opacity:1;fill-rule:evenodd;stroke:none"
         transform="matrix(1.3333333,0,0,-1.3333333,170.53187,604.88547)"
         clip-path="url(#clipPath20)" />
      <path
         id="path21"
         d="M 0,0 406.219,-8.049 388.186,-144.072 34.414,-148.795 Z"
         style="fill:#edd5d1;fill-opacity:1;fill-rule:evenodd;stroke:none"
         transform="matrix(1.3333333,0,0,-1.3333333,170.53187,604.88547)"
         clip-path="url(#clipPath22)" />
      <path
         id="path23"
         d="m 0,0 h 8.146 c 6.543,0 11.896,-5.353 11.896,-11.895 0,-6.541 -5.353,-11.894 -11.896,-11.894 H 0 c -6.543,0 -11.894,5.353 -11.894,11.894 C -11.894,-5.353 -6.543,0 0,0"
         style="fill:#ec767c;fill-opacity:1;fill-rule:evenodd;stroke:none"
         transform="matrix(1.3333333,0,0,-1.3333333,348.40827,252.05987)"
         clip-path="url(#clipPath24)" />
      <path
         id="path25"
         d="m 0,0 h 8.147 c 6.543,0 11.895,-5.353 11.895,-11.896 0,-6.54 -5.352,-11.893 -11.895,-11.893 H 0 c -6.543,0 -11.893,5.353 -11.893,11.893 C -11.893,-5.353 -6.543,0 0,0"
         style="fill:#ec767c;fill-opacity:1;fill-rule:evenodd;stroke:none"
         transform="matrix(1.3333333,0,0,-1.3333333,492.4752,261.9212)"
         clip-path="url(#clipPath26)" />
      <path
         id="path27"
         d="m 0,0 h 8.147 c 6.542,0 11.893,-5.353 11.893,-11.896 0,-6.543 -5.351,-11.893 -11.893,-11.893 H 0 c -6.543,0 -11.896,5.35 -11.896,11.893 C -11.896,-5.353 -6.543,0 0,0"
         style="fill:#ec767c;fill-opacity:1;fill-rule:evenodd;stroke:none"
         transform="matrix(1.3333333,0,0,-1.3333333,562.42973,233.24347)"
         clip-path="url(#clipPath28)" />
      <path
         id="path29"
         d="m 0,0 c 24.419,-0.049 49.481,-0.098 75.111,-0.155 26.235,-0.06 53.179,-0.113 80.693,-0.172 28.19,-0.062 57.116,-0.121 86.748,-0.191 30.443,-0.074 61.725,-0.15 93.813,-0.222 1.555,-4.223 3.14,-8.531 4.74,-12.874 -32.81,0.251 -64.727,0.479 -95.786,0.709 -30.24,0.224 -59.76,0.454 -88.454,0.666 -28.078,0.206 -55.506,0.403 -82.214,0.595 -26.091,0.19 -51.53,0.376 -76.386,0.559 C -1.15,-7.345 -0.571,-3.643 0,0 m -3.509,-22.41 c 51.201,-0.65 104.989,-1.33 161.466,-2.049 59.378,-0.756 122.009,-1.556 188.027,-2.4 1.693,-4.593 3.412,-9.256 5.147,-13.955 -67.486,1.232 -131.442,2.403 -192.011,3.51 -57.574,1.053 -112.37,2.054 -164.492,3.007 0.628,3.995 1.247,7.966 1.863,11.887 M 6.36,40.653 c 46.458,0.775 95.01,1.582 145.783,2.429 53.056,0.883 108.71,1.812 167.053,2.783 1.344,-3.657 2.705,-7.348 4.081,-11.085 C 263.761,34.065 207.046,33.374 153.008,32.721 101.389,32.097 52.031,31.49 4.837,30.917 c 0.514,3.276 1.022,6.52 1.523,9.736 M 3.284,20.992 c 23.666,0.183 47.881,0.362 72.714,0.548 25.316,0.195 51.316,0.394 77.865,0.594 27.167,0.204 54.982,0.407 83.51,0.62 29.24,0.218 59.294,0.44 90.09,0.67 1.447,-3.934 2.913,-7.905 4.394,-11.928 C 300.422,11.416 269.778,11.335 239.93,11.259 210.872,11.184 182.474,11.114 154.837,11.04 127.793,10.969 101.346,10.892 75.557,10.822 50.331,10.754 25.698,10.678 1.659,10.614 c 0.547,3.484 1.09,6.954 1.625,10.378"
         style="fill:#e1cbc5;fill-opacity:1;fill-rule:evenodd;stroke:none"
         transform="matrix(1.3333333,0,0,-1.3333333,214.75067,540.95827)"
         clip-path="url(#clipPath30)" />
      <path
         id="path31"
         d="M 0,0 C -3.52,16.607 7.09,32.922 23.693,36.444 40.301,39.966 56.62,29.356 60.138,12.751 l 17.061,-79.686 c 0.615,-2.897 0.798,-5.785 0.596,-8.598 l -0.125,-39.362 c 0,-16.94 -13.731,-30.673 -30.669,-30.673 -16.939,0 -30.671,13.733 -30.671,30.673 l 0.121,38.074 z"
         style="fill:#f5a683;fill-opacity:1;fill-rule:evenodd;stroke:none"
         transform="matrix(1.3333333,0,0,-1.3333333,369.16533,154.4492)"
         clip-path="url(#clipPath32)" />
      <path
         id="path33"
         d="m 0,0 h 8.147 c 6.543,0 11.893,-5.352 11.893,-11.895 0,-6.543 -5.35,-11.893 -11.893,-11.893 H 0 c -6.543,0 -11.893,5.35 -11.893,11.893 C -11.893,-5.352 -6.543,0 0,0"
         style="fill:#ec767c;fill-opacity:1;fill-rule:evenodd;stroke:none"
         transform="matrix(1.3333333,0,0,-1.3333333,432.3424,295.10227)"
         clip-path="url(#clipPath34)" />
      <path
         id="path35"
         d="m 0,0 v 0 c 5.395,1.899 11.358,-0.961 13.26,-6.354 l 10.263,-29.165 c 1.899,-5.395 -0.961,-11.359 -6.355,-13.259 -5.394,-1.897 -11.359,0.963 -13.256,6.356 L -6.354,-13.257 C -8.253,-7.862 -5.393,-1.896 0,0"
         style="fill:#f9b095;fill-opacity:1;fill-rule:evenodd;stroke:none"
         transform="matrix(1.3333333,0,0,-1.3333333,337.3932,161.56053)"
         clip-path="url(#clipPath36)" />
      <path
         id="path37"
         d="M 0,0 12.305,-58.071 C 15.156,-71.526 -5.27,-75.421 -8.122,-61.964 L -20.427,-3.893 C -23.278,9.56 -2.852,13.453 0,0"
         style="fill:#f9b095;fill-opacity:1;fill-rule:evenodd;stroke:none"
         transform="matrix(1.3333333,0,0,-1.3333333,441.54173,153.5892)"
         clip-path="url(#clipPath38)" />
      <path
         id="path39"
         d="M 0,0 12.308,-58.071 C 15.156,-71.523 -5.268,-75.417 -8.119,-61.962 L -20.424,-3.891 C -23.275,9.564 -2.851,13.455 0,0"
         style="fill:#f9b095;fill-opacity:1;fill-rule:evenodd;stroke:none"
         transform="matrix(1.3333333,0,0,-1.3333333,500.63027,115.35613)"
         clip-path="url(#clipPath40)" />
      <path
         id="path41"
         d="m 0,0 v 0 c 5.642,0.942 11.025,-2.902 11.968,-8.542 l 5.09,-30.497 c 0.941,-5.641 -2.903,-11.025 -8.544,-11.965 -5.639,-0.942 -11.024,2.902 -11.965,8.543 l -5.09,30.495 C -9.483,-6.327 -5.639,-0.942 0,0"
         style="fill:#f9b095;fill-opacity:1;fill-rule:evenodd;stroke:none"
         transform="matrix(1.3333333,0,0,-1.3333333,561.27867,122.2748)"
         clip-path="url(#clipPath42)" />
      <path
         id="path43"
         d="m 0,0 c -26.185,0.142 -52.846,0.295 -79.883,0.441 -27.415,0.147 -55.311,0.293 -83.583,0.452 -28.683,0.159 -57.846,0.318 -87.418,0.486 -30.088,0.168 -60.692,0.342 -91.806,0.512 -1.018,5.409 -2.05,10.898 -3.089,16.418 31.56,-0.299 62.562,-0.59 93.081,-0.885 29.996,-0.29 59.543,-0.583 88.6,-0.864 28.643,-0.275 56.907,-0.544 84.682,-0.812 C -52.023,15.483 -25.115,15.225 1.41,14.974 0.936,9.935 0.464,4.936 0,0 m 2.838,30.111 c -54.169,0.749 -110.029,1.528 -167.61,2.331 -59.413,0.83 -120.793,1.674 -184.142,2.568 -1.081,5.732 -2.169,11.522 -3.266,17.345 64.277,-1.174 126.523,-2.312 186.699,-3.413 58.359,-1.067 114.937,-2.1 169.804,-3.104 C 3.822,40.566 3.328,35.323 2.838,30.111 m -8.134,-86.27 c -50.446,-0.506 -102.424,-1.026 -155.866,-1.558 -54.973,-0.55 -111.642,-1.118 -170.004,-1.701 -0.923,4.907 -1.852,9.858 -2.79,14.844 59.16,0.372 116.569,0.73 172.229,1.074 54.08,0.337 106.672,0.664 157.714,0.977 -0.43,-4.569 -0.858,-9.118 -1.283,-13.636 m 2.584,27.416 c -25.59,-0.069 -51.613,-0.114 -78.005,-0.18 -26.76,-0.068 -53.985,-0.136 -81.548,-0.2 -27.926,-0.063 -56.323,-0.129 -85.155,-0.192 -29.265,-0.069 -59.098,-0.147 -89.364,-0.215 -0.971,5.153 -1.947,10.362 -2.932,15.604 30.686,-0.045 60.867,-0.099 90.544,-0.142 29.197,-0.04 58.026,-0.098 86.313,-0.142 27.913,-0.045 55.455,-0.083 82.556,-0.125 26.732,-0.043 53.053,-0.083 78.939,-0.117 -0.452,-4.795 -0.903,-9.558 -1.348,-14.291"
         style="fill:#ba9b93;fill-opacity:1;fill-rule:evenodd;stroke:none"
         transform="matrix(1.3333333,0,0,-1.3333333,677.164,704.0716)"
         clip-path="url(#clipPath44)" />
    </g>
  </g>
</svg>
